<?xml version="1.0" encoding="UTF-8"?>
<svg id="Layer_2" xmlns="http://www.w3.org/2000/svg" viewBox="0 0 392.64 160.13">
  <defs>
    <style>
      .cls-1 {
        fill: none;
      }

      .cls-2 {
        fill: #000938;
      }

      .cls-3 {
        fill: #27aae1;
      }
    </style>
  </defs>
  <g id="Layer_1-2" data-name="Layer_1">
    <g>
      <g>
        <g>
          <path class="cls-2" d="M392.64,137.94c-4.49-1.25-16.68-5.93-19.6-10.47-3.89-6.04.29-11.4,3.43-14.49,7.55-7.42,11.81-15.54,12.58-26,1.78-24.26-15.04-42.7-40.88-44.21-11.09-.65-22.25-.2-33.38-.24-6.94-.02-13.89,0-21.05,0v29.15c4.34.2,11.02-.05,11.02-.05,13.91.08,27.83-.04,41.73.19,7.27.12,12.64,3.81,14.23,10.97,1.71,7.7-5.03,13.63-9.05,16.45-1.99,1.4-6.24,4.78-8.49,11.1-7.81,21.88,16.31,50.11,49.45,49.78v-19.38"/>
          <path class="cls-3" d="M51.01,71.59h36.15v87.17h28.09v-87.82h34.93v-27.81H51.01v28.46Z"/>
          <path class="cls-2" d="M0,159.2h27.1V43.09H0v116.1Z"/>
          <path class="cls-2" d="M294.52,159.37h26.72v-69.03h-26.72v69.03Z"/>
        </g>
        <g>
          <path class="cls-1" d="M171.67,20.21c1.24,0,2.41-.22,3.52-.66,1.1-.44,2.08-1.09,2.94-1.93.89-.89,1.59-1.95,2.09-3.17.5-1.22.75-2.49.75-3.79,0-2.39-.75-4.33-2.24-5.81-1.49-1.48-3.46-2.22-5.89-2.22-1.21,0-2.36.22-3.44.66-1.08.44-2.03,1.08-2.85,1.9-.93.94-1.65,2.02-2.14,3.23-.49,1.21-.74,2.48-.74,3.79,0,2.41.73,4.34,2.2,5.81,1.46,1.47,3.4,2.2,5.8,2.2Z"/>
          <polygon class="cls-1" points="104.83 6.03 99.84 14.45 107.37 14.45 104.83 6.03"/>
          <polygon class="cls-1" points="268.39 6.03 263.4 14.45 270.93 14.45 268.39 6.03"/>
          <path class="cls-1" d="M51.79,19.47c.85-.12,1.58-.32,2.2-.61,1.44-.69,2.56-1.74,3.35-3.14.79-1.4,1.19-3.04,1.19-4.93,0-1.59-.32-2.98-.95-4.18-.63-1.2-1.53-2.1-2.68-2.7-.53-.29-1.19-.5-1.97-.62-.78-.12-1.9-.19-3.35-.19h-1.47l-2.19,16.54h1.37c2.15,0,3.66-.06,4.51-.18Z"/>
          <path class="cls-1" d="M219.22,10.14c.52-.08.98-.21,1.37-.39.63-.28,1.13-.72,1.48-1.31.35-.6.53-1.29.53-2.08,0-1.19-.37-2.03-1.12-2.52-.75-.49-2.17-.74-4.28-.74h-1.13l-.95,7.15h1.72c1.07,0,1.86-.04,2.38-.11Z"/>
          <polygon class="cls-2" points="32.51 .84 29.87 .84 27.1 21.95 29.72 21.95 32.51 .84"/>
          <path class="cls-2" d="M53.49,21.46c1.31-.33,2.47-.87,3.47-1.63,1.3-.99,2.31-2.3,3.04-3.92.73-1.62,1.1-3.38,1.1-5.27,0-2.01-.44-3.79-1.31-5.35-.87-1.56-2.09-2.73-3.66-3.52-.67-.34-1.49-.58-2.44-.72-.95-.14-2.62-.22-5.01-.22h-2.84l-2.77,21.12h3.98c2.97,0,5.11-.16,6.43-.49ZM48.11,3.1h1.47c1.45,0,2.57.06,3.35.19.78.13,1.44.33,1.97.62,1.15.61,2.05,1.51,2.68,2.7.64,1.2.95,2.59.95,4.18,0,1.88-.4,3.53-1.19,4.93-.79,1.4-1.91,2.45-3.35,3.14-.62.29-1.35.49-2.2.61-.85.12-2.35.18-4.51.18h-1.37l2.19-16.54Z"/>
          <polygon class="cls-2" points="83.6 19.62 74.75 19.62 75.82 11.7 84.22 11.7 84.51 9.43 76.13 9.43 76.95 3.13 85.34 3.13 85.63 .84 74.75 .84 71.99 21.95 83.26 21.95 83.6 19.62"/>
          <path class="cls-2" d="M98.72,16.63h9.22l1.41,5.32h2.81L105.4,0l-12.43,21.95h2.88l2.87-5.32ZM104.83,6.03l2.54,8.42h-7.53l4.99-8.42Z"/>
          <polygon class="cls-2" points="142.41 21.95 144.98 21.95 147.47 3.13 152.84 3.13 153.14 .84 139.84 .84 139.55 3.13 144.86 3.13 142.41 21.95"/>
          <path class="cls-2" d="M171.4,22.52c1.64,0,3.2-.28,4.66-.84,1.46-.56,2.73-1.36,3.82-2.4,1.15-1.11,2.04-2.4,2.67-3.89.62-1.49.94-3.07.94-4.74,0-3.11-.96-5.61-2.87-7.48-1.91-1.87-4.46-2.81-7.64-2.81-1.61,0-3.14.27-4.56.81-1.43.54-2.67,1.32-3.74,2.34-1.13,1.09-1.99,2.38-2.6,3.89-.61,1.51-.92,3.11-.92,4.82,0,3.06.94,5.54,2.83,7.44,1.89,1.9,4.36,2.85,7.42,2.85ZM164.42,8.41c.5-1.21,1.21-2.29,2.14-3.23.82-.83,1.77-1.46,2.85-1.9,1.08-.44,2.23-.66,3.44-.66,2.43,0,4.39.74,5.89,2.22,1.49,1.48,2.24,3.42,2.24,5.81,0,1.31-.25,2.57-.75,3.79-.5,1.22-1.2,2.28-2.09,3.17-.86.85-1.84,1.49-2.94,1.93-1.1.44-2.28.66-3.52.66-2.4,0-4.34-.73-5.8-2.2-1.46-1.47-2.2-3.4-2.2-5.81,0-1.32.25-2.58.74-3.79Z"/>
          <path class="cls-2" d="M214.87,12.2h1.07l6.2,9.75h3.04l-6.49-9.78c1.99-.02,3.57-.55,4.74-1.6,1.17-1.05,1.75-2.45,1.75-4.21,0-.88-.17-1.69-.5-2.42-.33-.73-.81-1.34-1.45-1.84-.59-.46-1.26-.79-2.03-.98-.77-.19-2.07-.29-3.92-.29h-3.4l-2.77,21.12h2.48l1.27-9.75ZM216.08,3.1h1.13c2.11,0,3.53.24,4.28.74.74.49,1.12,1.33,1.12,2.52,0,.79-.17,1.48-.53,2.08-.35.6-.84,1.03-1.48,1.31-.39.18-.85.31-1.37.39-.52.08-1.31.11-2.38.11h-1.72l.95-7.15Z"/>
          <polygon class="cls-2" points="247.15 19.62 238.31 19.62 239.38 11.7 247.77 11.7 248.06 9.43 239.68 9.43 240.5 3.13 248.9 3.13 249.19 .84 238.31 .84 235.54 21.95 246.82 21.95 247.15 19.62"/>
          <path class="cls-2" d="M262.27,16.63h9.22l1.41,5.32h2.81l-6.76-21.95-12.43,21.95h2.88l2.87-5.32ZM268.39,6.03l2.54,8.42h-7.53l4.99-8.42Z"/>
          <polygon class="cls-2" points="296.25 19.62 288.65 19.62 291.13 .84 288.59 .84 285.82 21.95 295.95 21.95 296.25 19.62"/>
          <polygon class="cls-2" points="312.41 .84 309.77 .84 307 21.95 309.63 21.95 312.41 .84"/>
          <polygon class="cls-2" points="326.35 21.95 328.92 21.95 331.41 3.13 336.78 3.13 337.08 .84 323.78 .84 323.49 3.13 328.8 3.13 326.35 21.95"/>
          <polygon class="cls-2" points="349.52 21.95 352.06 21.95 353.27 12.77 361.08 .84 358.21 .84 352.15 10.4 347.78 .84 345.07 .84 350.73 12.74 349.52 21.95"/>
        </g>
      </g>
      <g>
        <path class="cls-3" d="M200.69,76.38c1.58-.36,3.94-.89,4.53-1.4-.07-1.34-1.44-3.12-3.39-4.37-1.98-1.28-5-2.24-7.54-1.1-5.07,2.29-9.5.64-11.1-2.07-1.12-1.89-1.02-4.72,1.73-6.79,1.87-1.4,3.07-3.62,3.21-4.61-.24-.02-.66,0-1.31.13-3.6.72-7.4.53-10.63-.5-10.26,7.86-17.74,19.18-20.7,32.16.45.14.92.28,1.4.42,3.09.89,7.32,2.11,8.18,7.09.54,3.14,6.65,11.31,12.47,13.35,2.31.81,3.54.24,4.27-.34-.13-1.23-2.42-4.4-3.81-6.33-3-4.16-5.6-7.75-4.56-10.91.32-.99,1.15-2.31,3.24-2.99,3.18-1.03,5.18-.9,6.5-.81,1.25.08,1.59.1,3.94-3.57"/>
        <path class="cls-3" d="M263.48,114.48c-2.83,0-5.24-1.82-6.13-4.34h-63.71c-1.32,0-2.39-1.07-2.39-2.39s1.07-2.39,2.39-2.39h63.88c1.01-2.29,3.3-3.9,5.96-3.9,2.92,0,5.4,1.94,6.22,4.6.19-1.91.29-3.85.29-5.81,0-6.86-1.18-13.43-3.32-19.56-.59,1.94-2.07,3.49-3.96,4.2.03.15.05.3.05.45v11.33c0,1.32-1.07,2.39-2.39,2.39h-65.43c-1.32,0-2.39-1.07-2.39-2.39s1.07-2.39,2.39-2.39h63.03v-8.94c0-.17.02-.34.06-.51-2.4-.96-4.1-3.3-4.1-6.04,0-3.59,2.92-6.51,6.51-6.51,1.04,0,2.01.25,2.88.68-5.8-11.16-15.05-20.23-26.34-25.82,1.28,1.19,2.08,2.88,2.08,4.75,0,2.78-1.75,5.15-4.21,6.08v27.61c0,1.32-1.07,2.39-2.39,2.39h-28.75c-1.32,0-2.39-1.07-2.39-2.39s1.07-2.39,2.39-2.39h26.36v-25.28c-2.36-.98-4.03-3.3-4.03-6.02,0-3.59,2.92-6.51,6.51-6.51.2,0,.41.01.61.03-4.89-2-10.1-3.36-15.54-3.99,0,.04.01.07.01.11,0,2.93-2.38,5.31-5.31,5.31-1.97,0-3.67-1.09-4.59-2.68-9.37.41-18.15,3.14-25.79,7.63,1.31.04,2.65-.06,3.94-.32,4.45-.89,6.06,1.1,6.63,2.37,1.55,3.46-1.75,8.39-4.73,10.63-.37.28-.49.49-.5.55.02,0,.18.25.67.48.42.19,1.98.73,4.37-.34,3.64-1.64,8.16-1.11,12.1,1.44,3.44,2.22,5.58,5.47,5.58,8.49,0,4.1-4.39,5.09-8.27,5.96-3.95.89-8.43,1.9-10.58,5.26-3.31,5.17-4.97,5.97-8.28,5.76-1.13-.07-2.41-.16-4.72.59-.07.02-.12.04-.16.06.11,1.28,2.55,4.65,3.89,6.5,3.35,4.64,6.82,9.44,3.27,12.57-1.2,1.06-3.01,2.09-5.51,2.09-1.09,0-2.32-.2-3.69-.68-7.43-2.61-14.75-12.19-15.59-17.05-.32-1.86-1.57-2.38-4.79-3.31-.31-.09-.63-.18-.94-.28-.34,2.5-.54,5.04-.54,7.63,0,14.71,5.76,28.15,15.14,38.19.13-.77.34-1.57.69-2.38,1.91-4.52,4.86-6.59,7.23-8.25,1.13-.79,2.11-1.48,2.84-2.32.76-.88,1.36-2.51,1.94-4.08,1.12-3.03,2.5-6.8,6.26-6.93,2.84-.09,4.81,2.35,7.1,5.2,2.18,2.71,4.65,5.78,7.97,6.99,1.26.46,2.77.58,4.23.7,1.92.15,3.9.31,5.52,1.27,1.14.67,1.52,2.14.85,3.27-.67,1.14-2.14,1.52-3.27.85-.68-.4-2.1-.51-3.48-.62-1.69-.14-3.61-.29-5.48-.97-4.57-1.66-7.62-5.45-10.06-8.49-1.04-1.3-2.62-3.26-3.28-3.43-.48.03-1.46,2.68-1.88,3.82-.73,1.98-1.48,4.03-2.82,5.57-1.11,1.28-2.43,2.2-3.7,3.09-2.16,1.51-4.19,2.94-5.57,6.2-1.21,2.88.35,5.28,1.46,6.52,8.85,6.91,19.8,11.24,31.7,11.81.83-1.85,2.68-3.14,4.84-3.14,2.93,0,5.31,2.38,5.31,5.31,0,.24-.04.47-.07.7,25.74-2.94,46.46-22.38,51.33-47.48-1.17,1.75-3.16,2.9-5.41,2.9ZM200.68,58.39c0,1.32-1.07,2.39-2.39,2.39s-2.39-1.07-2.39-2.39v-7.81c0-1.32,1.07-2.39,2.39-2.39s2.39,1.07,2.39,2.39v7.81ZM207.45,61.97c0,1.32-1.07,2.39-2.39,2.39s-2.39-1.07-2.39-2.39v-11.4c0-1.32,1.07-2.39,2.39-2.39s2.39,1.07,2.39,2.39v11.4ZM214.55,68.1c0,1.32-1.07,2.39-2.39,2.39s-2.39-1.07-2.39-2.39v-17.53c0-1.32,1.07-2.39,2.39-2.39s2.39,1.07,2.39,2.39M194.09,137.78c0-1.32,1.07-2.39,2.39-2.39h11.35c1.32,0,2.39,1.07,2.39,2.39s-1.07,2.39-2.39,2.39h-11.35c-1.32,0-2.39-1.07-2.39-2.39ZM207.16,152.86h-9.48c-1.32,0-2.39-1.07-2.39-2.39s1.07-2.39,2.39-2.39h9.48c1.32,0,2.39,1.07,2.39,2.39s-1.07,2.39-2.39,2.39ZM213.53,146.52h-9.48c-1.32,0-2.39-1.07-2.39-2.39s1.07-2.39,2.39-2.39h9.48c1.32,0,2.39,1.07,2.39,2.39s-1.07,2.39-2.39,2.39ZM250.4,141.04c-2.6,0-4.85-1.54-5.89-3.75h-8.88c-1.32,0-2.39-1.07-2.39-2.39v-13.2h-30.18c-1.32,0-2.39-1.07-2.39-2.39s1.07-2.39,2.39-2.39h32.57c1.32,0,2.39,1.07,2.39,2.39v13.2h6.19c.85-2.6,3.3-4.48,6.18-4.48,3.59,0,6.51,2.92,6.51,6.51s-2.92,6.51-6.51,6.51Z"/>
        <circle class="cls-3" cx="250.4" cy="134.53" r="2.38"/>
        <path class="cls-3" d="M260.45,76.41c-1.31,0-2.38,1.07-2.38,2.38s1.07,2.38,2.38,2.38,2.38-1.07,2.38-2.38-1.07-2.38-2.38-2.38Z"/>
        <path class="cls-3" d="M232.56,49.53c-1.31,0-2.38,1.07-2.38,2.38s1.07,2.38,2.38,2.38,2.38-1.07,2.38-2.38-1.07-2.38-2.38-2.38Z"/>
        <path class="cls-3" d="M261.11,107.97c0,1.31,1.07,2.38,2.38,2.38s2.38-1.07,2.38-2.38-1.07-2.38-2.38-2.38-2.38,1.07-2.38,2.38Z"/>
      </g>
    </g>
  </g>
</svg>